<?xml version="1.0" encoding="utf-8"?>
<!-- Svg Vector Icons : http://www.onlinewebfonts.com/icon -->
<!DOCTYPE svg PUBLIC "-//W3C//DTD SVG 1.1//EN" "http://www.w3.org/Graphics/SVG/1.1/DTD/svg11.dtd">
<svg version="1.1" xmlns="http://www.w3.org/2000/svg" xmlns:xlink="http://www.w3.org/1999/xlink" x="0px" y="0px" viewBox="0 0 1000 1000" enable-background="new 0 0 1000 1000" xml:space="preserve">
<metadata> Svg Vector Icons : http://www.onlinewebfonts.com/icon </metadata>
<g><path d="M500,126.8L10,393.6v37.2h27.1v25.1h11.4V481h17.9v256.2h58.1V481h17.9v-25.1h11.3v-25.1H268v25.1h11.4V481h17.8v256.2h58.1V481h17.9v-25.1h11.4v-25.1h230.8v25.1h11.3V481h17.9v256.2h58.1V481h17.9v-25.1H732v-25.1h113.9v25.1h11.4V481h17.9v256.2h58.1V481h17.8v-25.1h11.4v-25.1H990v-37.2L500,126.8z M501,349.3c-33.3,0-60.4-27-60.4-60.4c0-33.3,27-60.3,60.4-60.3c33.3,0,60.4,27,60.4,60.3C561.3,322.3,534.3,349.3,501,349.3z"/><path d="M10,806.7h980v66.4H10V806.7z"/><path d="M51.6,740.3h896.8v66.4H51.6V740.3z"/></g>
</svg>